<mxfile host="Electron" modified="2023-11-06T17:22:09.768Z" agent="Mozilla/5.0 (Windows NT 10.0; Win64; x64) AppleWebKit/537.36 (KHTML, like Gecko) draw.io/22.0.3 Chrome/114.0.5735.289 Electron/25.8.4 Safari/537.36" etag="8p6StdNDsqsofzzdG_EH" version="22.0.3" type="device">
  <diagram name="Page-1" id="N8YlYyIKDBl7h0IdzL4h">
    <mxGraphModel dx="1036" dy="606" grid="1" gridSize="10" guides="1" tooltips="1" connect="1" arrows="1" fold="1" page="1" pageScale="1" pageWidth="850" pageHeight="1100" math="0" shadow="0">
      <root>
        <mxCell id="0" />
        <mxCell id="1" parent="0" />
        <mxCell id="DsVCG0FuCo7xMMf3UC3I-24" style="edgeStyle=orthogonalEdgeStyle;rounded=0;orthogonalLoop=1;jettySize=auto;html=1;exitX=0.5;exitY=1;exitDx=0;exitDy=0;entryX=0.5;entryY=0;entryDx=0;entryDy=0;" edge="1" parent="1" source="DsVCG0FuCo7xMMf3UC3I-1" target="DsVCG0FuCo7xMMf3UC3I-2">
          <mxGeometry relative="1" as="geometry" />
        </mxCell>
        <mxCell id="DsVCG0FuCo7xMMf3UC3I-1" value="START" style="ellipse;whiteSpace=wrap;html=1;" vertex="1" parent="1">
          <mxGeometry x="365" y="90" width="120" height="80" as="geometry" />
        </mxCell>
        <mxCell id="DsVCG0FuCo7xMMf3UC3I-15" style="edgeStyle=orthogonalEdgeStyle;rounded=0;orthogonalLoop=1;jettySize=auto;html=1;exitX=0;exitY=0.5;exitDx=0;exitDy=0;" edge="1" parent="1" source="DsVCG0FuCo7xMMf3UC3I-2" target="DsVCG0FuCo7xMMf3UC3I-3">
          <mxGeometry relative="1" as="geometry" />
        </mxCell>
        <mxCell id="DsVCG0FuCo7xMMf3UC3I-2" value="a,b" style="shape=parallelogram;perimeter=parallelogramPerimeter;whiteSpace=wrap;html=1;fixedSize=1;" vertex="1" parent="1">
          <mxGeometry x="365" y="220" width="120" height="60" as="geometry" />
        </mxCell>
        <mxCell id="DsVCG0FuCo7xMMf3UC3I-17" style="edgeStyle=orthogonalEdgeStyle;rounded=0;orthogonalLoop=1;jettySize=auto;html=1;exitX=0.5;exitY=1;exitDx=0;exitDy=0;entryX=0.5;entryY=0;entryDx=0;entryDy=0;" edge="1" parent="1" source="DsVCG0FuCo7xMMf3UC3I-3" target="DsVCG0FuCo7xMMf3UC3I-7">
          <mxGeometry relative="1" as="geometry" />
        </mxCell>
        <mxCell id="DsVCG0FuCo7xMMf3UC3I-3" value="+" style="shape=parallelogram;perimeter=parallelogramPerimeter;whiteSpace=wrap;html=1;fixedSize=1;" vertex="1" parent="1">
          <mxGeometry x="40" y="330" width="120" height="60" as="geometry" />
        </mxCell>
        <mxCell id="DsVCG0FuCo7xMMf3UC3I-4" value="-" style="shape=parallelogram;perimeter=parallelogramPerimeter;whiteSpace=wrap;html=1;fixedSize=1;" vertex="1" parent="1">
          <mxGeometry x="210" y="330" width="120" height="60" as="geometry" />
        </mxCell>
        <mxCell id="DsVCG0FuCo7xMMf3UC3I-5" value="*" style="shape=parallelogram;perimeter=parallelogramPerimeter;whiteSpace=wrap;html=1;fixedSize=1;" vertex="1" parent="1">
          <mxGeometry x="530" y="330" width="120" height="60" as="geometry" />
        </mxCell>
        <mxCell id="DsVCG0FuCo7xMMf3UC3I-19" style="edgeStyle=orthogonalEdgeStyle;rounded=0;orthogonalLoop=1;jettySize=auto;html=1;exitX=0.5;exitY=1;exitDx=0;exitDy=0;entryX=0.5;entryY=0;entryDx=0;entryDy=0;" edge="1" parent="1" source="DsVCG0FuCo7xMMf3UC3I-6" target="DsVCG0FuCo7xMMf3UC3I-10">
          <mxGeometry relative="1" as="geometry" />
        </mxCell>
        <mxCell id="DsVCG0FuCo7xMMf3UC3I-6" value="/" style="shape=parallelogram;perimeter=parallelogramPerimeter;whiteSpace=wrap;html=1;fixedSize=1;" vertex="1" parent="1">
          <mxGeometry x="740" y="330" width="120" height="60" as="geometry" />
        </mxCell>
        <mxCell id="DsVCG0FuCo7xMMf3UC3I-7" value="a+b" style="shape=parallelogram;perimeter=parallelogramPerimeter;whiteSpace=wrap;html=1;fixedSize=1;" vertex="1" parent="1">
          <mxGeometry x="40" y="430" width="120" height="60" as="geometry" />
        </mxCell>
        <mxCell id="DsVCG0FuCo7xMMf3UC3I-21" style="edgeStyle=orthogonalEdgeStyle;rounded=0;orthogonalLoop=1;jettySize=auto;html=1;exitX=0.5;exitY=1;exitDx=0;exitDy=0;entryX=0.372;entryY=-0.05;entryDx=0;entryDy=0;entryPerimeter=0;" edge="1" parent="1" target="DsVCG0FuCo7xMMf3UC3I-26">
          <mxGeometry relative="1" as="geometry">
            <mxPoint x="410" y="540" as="targetPoint" />
            <mxPoint x="240" y="490" as="sourcePoint" />
            <Array as="points">
              <mxPoint x="240" y="515" />
              <mxPoint x="411" y="515" />
              <mxPoint x="411" y="607" />
            </Array>
          </mxGeometry>
        </mxCell>
        <mxCell id="DsVCG0FuCo7xMMf3UC3I-8" value="a-b" style="shape=parallelogram;perimeter=parallelogramPerimeter;whiteSpace=wrap;html=1;fixedSize=1;" vertex="1" parent="1">
          <mxGeometry x="190" y="430" width="120" height="60" as="geometry" />
        </mxCell>
        <mxCell id="DsVCG0FuCo7xMMf3UC3I-20" style="edgeStyle=orthogonalEdgeStyle;rounded=0;orthogonalLoop=1;jettySize=auto;html=1;exitX=0.5;exitY=1;exitDx=0;exitDy=0;entryX=0.5;entryY=0;entryDx=0;entryDy=0;" edge="1" parent="1" source="DsVCG0FuCo7xMMf3UC3I-9" target="DsVCG0FuCo7xMMf3UC3I-26">
          <mxGeometry relative="1" as="geometry">
            <mxPoint x="425" y="540" as="targetPoint" />
            <Array as="points">
              <mxPoint x="570" y="515" />
              <mxPoint x="426" y="515" />
            </Array>
          </mxGeometry>
        </mxCell>
        <mxCell id="DsVCG0FuCo7xMMf3UC3I-9" value="a*b" style="shape=parallelogram;perimeter=parallelogramPerimeter;whiteSpace=wrap;html=1;fixedSize=1;" vertex="1" parent="1">
          <mxGeometry x="510" y="430" width="120" height="60" as="geometry" />
        </mxCell>
        <mxCell id="DsVCG0FuCo7xMMf3UC3I-22" style="edgeStyle=orthogonalEdgeStyle;rounded=0;orthogonalLoop=1;jettySize=auto;html=1;exitX=0.5;exitY=1;exitDx=0;exitDy=0;entryX=1;entryY=0;entryDx=0;entryDy=0;" edge="1" parent="1" source="DsVCG0FuCo7xMMf3UC3I-10" target="DsVCG0FuCo7xMMf3UC3I-26">
          <mxGeometry relative="1" as="geometry">
            <mxPoint x="485" y="580" as="targetPoint" />
          </mxGeometry>
        </mxCell>
        <mxCell id="DsVCG0FuCo7xMMf3UC3I-10" value="a/b" style="shape=parallelogram;perimeter=parallelogramPerimeter;whiteSpace=wrap;html=1;fixedSize=1;" vertex="1" parent="1">
          <mxGeometry x="740" y="430" width="120" height="60" as="geometry" />
        </mxCell>
        <mxCell id="DsVCG0FuCo7xMMf3UC3I-12" style="edgeStyle=orthogonalEdgeStyle;rounded=0;orthogonalLoop=1;jettySize=auto;html=1;exitX=0;exitY=1;exitDx=0;exitDy=0;entryX=0.603;entryY=-0.063;entryDx=0;entryDy=0;entryPerimeter=0;" edge="1" parent="1" source="DsVCG0FuCo7xMMf3UC3I-2" target="DsVCG0FuCo7xMMf3UC3I-4">
          <mxGeometry relative="1" as="geometry" />
        </mxCell>
        <mxCell id="DsVCG0FuCo7xMMf3UC3I-13" style="edgeStyle=orthogonalEdgeStyle;rounded=0;orthogonalLoop=1;jettySize=auto;html=1;exitX=0.75;exitY=1;exitDx=0;exitDy=0;entryX=0.563;entryY=-0.01;entryDx=0;entryDy=0;entryPerimeter=0;" edge="1" parent="1" source="DsVCG0FuCo7xMMf3UC3I-2" target="DsVCG0FuCo7xMMf3UC3I-5">
          <mxGeometry relative="1" as="geometry" />
        </mxCell>
        <mxCell id="DsVCG0FuCo7xMMf3UC3I-14" style="edgeStyle=orthogonalEdgeStyle;rounded=0;orthogonalLoop=1;jettySize=auto;html=1;exitX=1;exitY=0.5;exitDx=0;exitDy=0;entryX=0.607;entryY=-0.037;entryDx=0;entryDy=0;entryPerimeter=0;" edge="1" parent="1" source="DsVCG0FuCo7xMMf3UC3I-2" target="DsVCG0FuCo7xMMf3UC3I-6">
          <mxGeometry relative="1" as="geometry" />
        </mxCell>
        <mxCell id="DsVCG0FuCo7xMMf3UC3I-16" style="edgeStyle=orthogonalEdgeStyle;rounded=0;orthogonalLoop=1;jettySize=auto;html=1;exitX=0.5;exitY=1;exitDx=0;exitDy=0;entryX=0.61;entryY=-0.01;entryDx=0;entryDy=0;entryPerimeter=0;" edge="1" parent="1" source="DsVCG0FuCo7xMMf3UC3I-4" target="DsVCG0FuCo7xMMf3UC3I-8">
          <mxGeometry relative="1" as="geometry" />
        </mxCell>
        <mxCell id="DsVCG0FuCo7xMMf3UC3I-18" style="edgeStyle=orthogonalEdgeStyle;rounded=0;orthogonalLoop=1;jettySize=auto;html=1;exitX=0.5;exitY=1;exitDx=0;exitDy=0;entryX=0.69;entryY=-0.01;entryDx=0;entryDy=0;entryPerimeter=0;" edge="1" parent="1" source="DsVCG0FuCo7xMMf3UC3I-5" target="DsVCG0FuCo7xMMf3UC3I-9">
          <mxGeometry relative="1" as="geometry" />
        </mxCell>
        <mxCell id="DsVCG0FuCo7xMMf3UC3I-23" style="edgeStyle=orthogonalEdgeStyle;rounded=0;orthogonalLoop=1;jettySize=auto;html=1;exitX=0.5;exitY=1;exitDx=0;exitDy=0;entryX=0;entryY=0;entryDx=0;entryDy=0;" edge="1" parent="1" source="DsVCG0FuCo7xMMf3UC3I-7" target="DsVCG0FuCo7xMMf3UC3I-26">
          <mxGeometry relative="1" as="geometry">
            <mxPoint x="365.5999999999999" y="588.6400000000001" as="targetPoint" />
          </mxGeometry>
        </mxCell>
        <mxCell id="DsVCG0FuCo7xMMf3UC3I-28" style="edgeStyle=orthogonalEdgeStyle;rounded=0;orthogonalLoop=1;jettySize=auto;html=1;exitX=0.5;exitY=1;exitDx=0;exitDy=0;entryX=0.5;entryY=0;entryDx=0;entryDy=0;" edge="1" parent="1" source="DsVCG0FuCo7xMMf3UC3I-26" target="DsVCG0FuCo7xMMf3UC3I-27">
          <mxGeometry relative="1" as="geometry" />
        </mxCell>
        <mxCell id="DsVCG0FuCo7xMMf3UC3I-26" value="Kết quả" style="rounded=0;whiteSpace=wrap;html=1;" vertex="1" parent="1">
          <mxGeometry x="365" y="610" width="120" height="60" as="geometry" />
        </mxCell>
        <mxCell id="DsVCG0FuCo7xMMf3UC3I-27" value="Kết thúc" style="ellipse;whiteSpace=wrap;html=1;" vertex="1" parent="1">
          <mxGeometry x="365" y="720" width="120" height="80" as="geometry" />
        </mxCell>
      </root>
    </mxGraphModel>
  </diagram>
</mxfile>
